<svg width="167" height="478" fill="none" xmlns="http://www.w3.org/2000/svg"><g filter="url(#filter0_d)" fill="#0182E8"><path d="M70.503 172.263c-.49-.275-.83-1.076-.687-1.61.23-.855 1.53-1.263 2.333-1.369.803-.107 1.52.278 1.598.842.044.317-.24.53-.31.569l-.166.092c-.455.251-.822.453-1.075.664-.12.1-.233.224-.348.35-.362.398-.733.805-1.345.462zm-3.263.847c.959-.302 2.453.208 3.003 1.032.687 1.027-.019 1.711-.708 2.379-.217.211-.433.42-.603.638-.36.461-.692 1.117-1.105 1.932l-.15.297c-.064.125-.424.64-1.006.595-1.036-.081-1.81-1.286-1.695-2.69.114-1.404.728-3.699 2.264-4.183z"/><path fill-rule="evenodd" clip-rule="evenodd" d="M83 222.03c18.698 0 33.856-14.788 33.856-33.03S101.698 155.97 83 155.97 49.144 170.758 49.144 189 64.302 222.03 83 222.03zm20.31-20.358c6.346-5.136 6.25-18.503 2.835-25.819-5.474-11.726-12.324-11.828-24.13-11.418-11.807.411-21.126 7.675-20.823 15.965.17 4.661 4.798 7.03 5.893 7.415 3.371 1.187 5.7 1.83 7.582 2.35 2.806.775 4.62 1.276 7.415 2.893 2.63 1.52 4.682 3.809 6.597 5.946 4.08 4.551 7.538 8.409 14.631 2.668zm-21.967 6.119c1.78-1.899 3.648-3.893 4.736-5.529 2.308-3.469 5.44 1.493 6.367 3.058.927 1.564-1.816 4.803-6.125 7.233-4.31 2.43-8.555 3.132-9.482 1.567-.552-.932 1.88-3.528 4.504-6.329zm-11.592-7.402c-.741 1.217-.846 3.805-.947 6.299-.125 3.096-.244 6.046-1.568 6.046-2.39 0-4.947-10.046-4.947-16.169 0-6.011 2.463-6.008 4.814-6.006h.133c2.39 0 6.419 1.778 2.515 9.83zm5.271 8.332c1.224.274 4.972-7.501 5.789-10.974.753-3.204-.557-3.47-1.725-3.707-.098-.02-.195-.039-.29-.06-.2-.045-.428-.123-.672-.206-1.252-.428-2.946-1.005-3.628 1.899-.817 3.472-.697 12.774.526 13.048z"/><path fill-rule="evenodd" clip-rule="evenodd" d="M24 420.992L5.63 434.381H5V1h156.099v433.381h-.63L142 420.92V469h-.368l-58.533-42.319L24.566 469H24v-48.008zm118-13.683V20H24v387.381l-8 5.83V12h134.099v401.212L142 407.309zM83 229c22.644 0 41-17.909 41-40s-18.356-40-41-40-41 17.909-41 40 18.356 40 41 40z"/></g><defs><filter id="filter0_d" x="0" y="0" width="166.099" height="478" filterUnits="userSpaceOnUse" color-interpolation-filters="sRGB"><feFlood flood-opacity="0" result="BackgroundImageFix"/><feColorMatrix in="SourceAlpha" values="0 0 0 0 0 0 0 0 0 0 0 0 0 0 0 0 0 0 127 0"/><feOffset dy="4"/><feGaussianBlur stdDeviation="2.5"/><feColorMatrix values="0 0 0 0 0.184314 0 0 0 0 0.168627 0 0 0 0 0.180392 0 0 0 0.1 0"/><feBlend in2="BackgroundImageFix" result="effect1_dropShadow"/><feBlend in="SourceGraphic" in2="effect1_dropShadow" result="shape"/></filter></defs></svg>