<svg xmlns="http://www.w3.org/2000/svg" xmlns:xlink="http://www.w3.org/1999/xlink"><symbol id="icon-desktop"><path fill-rule="evenodd" clip-rule="evenodd" d="M13 0a5 5 0 0 0-5 5v55a5 5 0 0 0 5 5h85a5 5 0 0 0 5-5V5a5 5 0 0 0-5-5H13zm0 4a1 1 0 0 0-1 1v55a1 1 0 0 0 1 1h85a1 1 0 0 0 1-1V5a1 1 0 0 0-1-1H13zM0 69.5A2.5 2.5 0 0 1 2.5 67h106a2.5 2.5 0 1 1 0 5H2.5A2.5 2.5 0 0 1 0 69.5zm50 .5h11v-2H50v2z" fill="#0182E8"/></symbol><symbol id="icon-phone"><path fill-rule="evenodd" clip-rule="evenodd" d="M25.134 0a5 5 0 0 1 5 5v33.831a5 5 0 0 1-5 5H5a5 5 0 0 1-5-5V5a5 5 0 0 1 5-5h20.134zm-2.11 4.11a3 3 0 0 1 3 3v29.612a3 3 0 0 1-3 3H7.11a3 3 0 0 1-3-3V7.109a3 3 0 0 1 3-3h15.916zm-5.218 38.352v-1.37h-5.479v1.37h5.48z" fill="#0182E8"/></symbol><symbol id="icon-tablet"><path fill-rule="evenodd" clip-rule="evenodd" d="M34.874.99a5 5 0 0 1 5 5v47.53a5 5 0 0 1-5 5H5.152a5 5 0 0 1-5-5V5.99a5 5 0 0 1 5-5h29.722zM33 5a3 3 0 0 1 3 3v42a3 3 0 0 1-3 3H7a3 3 0 0 1-3-3V8a3 3 0 0 1 3-3h26zm-9 52v-2h-8v2h8z" fill="#0182E8"/></symbol></svg>